<mxfile host="app.diagrams.net" modified="2023-04-13T13:36:16.614Z" agent="Mozilla/5.0 (Windows NT 10.0; Win64; x64) AppleWebKit/537.36 (KHTML, like Gecko) Chrome/112.0.0.0 Safari/537.36" etag="0HEA-c9Z4u_745TBNw2d" version="21.1.7" type="github">
  <diagram name="Page-1" id="-yfH9lSGXc5rCJOuxfpq">
    <mxGraphModel dx="1522" dy="716" grid="1" gridSize="10" guides="1" tooltips="1" connect="1" arrows="1" fold="1" page="1" pageScale="1" pageWidth="850" pageHeight="1100" math="0" shadow="0">
      <root>
        <mxCell id="0" />
        <mxCell id="1" parent="0" />
        <mxCell id="aCWl9-LLvi9izxfEwxLD-8" style="edgeStyle=orthogonalEdgeStyle;rounded=0;orthogonalLoop=1;jettySize=auto;html=1;exitX=0.5;exitY=1;exitDx=0;exitDy=0;entryX=0.5;entryY=0;entryDx=0;entryDy=0;" edge="1" parent="1" source="aCWl9-LLvi9izxfEwxLD-1" target="aCWl9-LLvi9izxfEwxLD-2">
          <mxGeometry relative="1" as="geometry" />
        </mxCell>
        <mxCell id="aCWl9-LLvi9izxfEwxLD-1" value="开始" style="rounded=1;whiteSpace=wrap;html=1;" vertex="1" parent="1">
          <mxGeometry x="390" y="120" width="120" height="60" as="geometry" />
        </mxCell>
        <mxCell id="aCWl9-LLvi9izxfEwxLD-9" style="edgeStyle=orthogonalEdgeStyle;rounded=0;orthogonalLoop=1;jettySize=auto;html=1;exitX=0.5;exitY=1;exitDx=0;exitDy=0;entryX=0.5;entryY=0;entryDx=0;entryDy=0;" edge="1" parent="1" source="aCWl9-LLvi9izxfEwxLD-2" target="aCWl9-LLvi9izxfEwxLD-3">
          <mxGeometry relative="1" as="geometry" />
        </mxCell>
        <mxCell id="aCWl9-LLvi9izxfEwxLD-2" value="在posts文件夹下新建md或mdx文件" style="rounded=0;whiteSpace=wrap;html=1;" vertex="1" parent="1">
          <mxGeometry x="390" y="230" width="120" height="60" as="geometry" />
        </mxCell>
        <mxCell id="aCWl9-LLvi9izxfEwxLD-10" style="edgeStyle=orthogonalEdgeStyle;rounded=0;orthogonalLoop=1;jettySize=auto;html=1;exitX=0.5;exitY=1;exitDx=0;exitDy=0;entryX=0.5;entryY=0;entryDx=0;entryDy=0;" edge="1" parent="1" source="aCWl9-LLvi9izxfEwxLD-3" target="aCWl9-LLvi9izxfEwxLD-4">
          <mxGeometry relative="1" as="geometry" />
        </mxCell>
        <mxCell id="aCWl9-LLvi9izxfEwxLD-3" value="添加frontmatter（标题、标签等）" style="rounded=0;whiteSpace=wrap;html=1;" vertex="1" parent="1">
          <mxGeometry x="390" y="340" width="120" height="60" as="geometry" />
        </mxCell>
        <mxCell id="aCWl9-LLvi9izxfEwxLD-11" style="edgeStyle=orthogonalEdgeStyle;rounded=0;orthogonalLoop=1;jettySize=auto;html=1;exitX=0.5;exitY=1;exitDx=0;exitDy=0;entryX=0.5;entryY=0;entryDx=0;entryDy=0;" edge="1" parent="1" source="aCWl9-LLvi9izxfEwxLD-4" target="aCWl9-LLvi9izxfEwxLD-5">
          <mxGeometry relative="1" as="geometry" />
        </mxCell>
        <mxCell id="aCWl9-LLvi9izxfEwxLD-4" value="添加文章主体内容信息" style="rounded=0;whiteSpace=wrap;html=1;" vertex="1" parent="1">
          <mxGeometry x="390" y="450" width="120" height="60" as="geometry" />
        </mxCell>
        <mxCell id="aCWl9-LLvi9izxfEwxLD-12" style="edgeStyle=orthogonalEdgeStyle;rounded=0;orthogonalLoop=1;jettySize=auto;html=1;exitX=0.5;exitY=1;exitDx=0;exitDy=0;entryX=0.5;entryY=0;entryDx=0;entryDy=0;" edge="1" parent="1" source="aCWl9-LLvi9izxfEwxLD-5" target="aCWl9-LLvi9izxfEwxLD-6">
          <mxGeometry relative="1" as="geometry" />
        </mxCell>
        <mxCell id="aCWl9-LLvi9izxfEwxLD-5" value="通过git将新增的文件推送至GitHub" style="rounded=0;whiteSpace=wrap;html=1;" vertex="1" parent="1">
          <mxGeometry x="390" y="560" width="120" height="60" as="geometry" />
        </mxCell>
        <mxCell id="aCWl9-LLvi9izxfEwxLD-13" style="edgeStyle=orthogonalEdgeStyle;rounded=0;orthogonalLoop=1;jettySize=auto;html=1;entryX=0.5;entryY=0;entryDx=0;entryDy=0;" edge="1" parent="1" source="aCWl9-LLvi9izxfEwxLD-6" target="aCWl9-LLvi9izxfEwxLD-7">
          <mxGeometry relative="1" as="geometry" />
        </mxCell>
        <mxCell id="aCWl9-LLvi9izxfEwxLD-6" value="触发Vercel自动部署" style="rounded=0;whiteSpace=wrap;html=1;" vertex="1" parent="1">
          <mxGeometry x="390" y="660" width="120" height="60" as="geometry" />
        </mxCell>
        <mxCell id="aCWl9-LLvi9izxfEwxLD-7" value="结束" style="rounded=1;whiteSpace=wrap;html=1;" vertex="1" parent="1">
          <mxGeometry x="390" y="770" width="120" height="60" as="geometry" />
        </mxCell>
      </root>
    </mxGraphModel>
  </diagram>
</mxfile>
